<svg width="44" height="44" viewBox="0 0 44 44" fill="none" xmlns="http://www.w3.org/2000/svg">
<path fill-rule="evenodd" clip-rule="evenodd" d="M29.587 21.8512C31.4126 22.0736 33.0592 22.2202 34.4383 20.9363C36.0085 19.4745 35.3935 16.7564 34.671 14.4665C33.8526 11.8729 43.0768 11.6609 42.2233 7.72464C41.6902 5.26625 38.9257 4.1457 37.6436 4.49966C36.3616 4.85363 29.8049 7.99816 29.4364 9.99583C29.068 11.9935 31.0573 12.863 31.106 13.8028C31.1547 14.7426 30.8792 15.5996 30.252 16.1836C29.2526 17.114 27.4075 17.0782 26.0643 16.2546C24.7721 15.0684 22.8576 13.9128 21.2364 13.7235C19.4113 13.5104 17.8568 13.8892 16.4854 15.1813C15.114 16.4734 14.6435 18.0026 14.7476 19.8371C14.8518 21.6717 16.8691 24.7635 16.8691 24.7635C16.8691 24.7635 17.443 26.0111 17.4769 26.665C17.5256 27.6048 17.2006 28.4608 16.5733 29.0448C15.9461 29.6288 15.068 29.8928 14.1322 29.7789C12.292 29.5548 11.0101 29.0115 9.05144 29.3704C6.69446 29.8023 3.59922 32.8185 3.23568 37.2921C3.0179 39.972 4.48798 40.9997 7.12945 41.5821C10.8548 42.4035 11.0881 34.2967 15.1715 34.8129C15.5891 34.8656 16.51 34.7691 16.8691 34.8129C18.6948 35.0352 19.6251 34.8779 21.0042 33.5939C22.3833 32.31 22.8619 30.7846 22.7669 28.9512C22.6938 27.5412 22.4796 26.5098 21.6351 25.269L21.0033 24.5348C19.3648 22.7914 18.4106 19.95 20.0047 18.448C21.3419 17.1881 23.8782 18.094 25.0909 19.0787C26.6141 20.3156 28.0542 21.5587 29.587 21.8512Z" fill="#828282"/>
</svg>
