<svg width="44" height="44" viewBox="0 0 44 44" fill="none" xmlns="http://www.w3.org/2000/svg">
<path fill-rule="evenodd" clip-rule="evenodd" d="M29.2414 8.42494C30.3606 7.77875 30.9634 6.21873 32.4298 6.21875C33.8961 6.21877 34.8107 8.23241 36.1597 9.01126C37.5088 9.79012 38.7971 11.5942 38.7971 12.8866C38.7971 14.179 39.7121 15.9547 39.4219 17.297C39.1317 18.6392 36.8124 19.2747 35.6932 19.9209C34.574 20.5671 34.5179 22.2168 33.3986 22.863C32.2794 23.5091 30.9005 23.5091 29.7812 22.863C28.662 22.2168 29.2494 22.4861 28.1326 22.3546C26.7448 22.1911 20.341 26.2815 20.6681 28.3164C21.0882 30.93 21.8036 31.3476 20.9578 33.4692C20.3761 34.9281 18.4859 34.7922 17.3881 35.6999C16.2904 36.6077 17.2777 37.0415 15.1764 38.495C13.0751 39.9485 10.982 39.2672 8.56909 37.5512C5.95056 35.689 4.58653 35.898 4.58653 32.4466C4.58653 32.4466 4.35328 31.3043 4.3595 29.0304C4.36571 26.7565 6.20442 26.5875 7.32364 25.9413C8.44287 25.2952 9.18061 23.4555 10.756 22.863C12.443 22.2284 13.4333 22.863 15.3987 22.863C17.4519 22.863 23.8883 18.1293 23.4542 15.6292C23.1608 13.939 23.4542 12.4305 23.4542 12.4305C23.4542 12.4305 24.4475 9.94389 25.5667 9.2977C26.686 8.65152 28.1222 9.07112 29.2414 8.42494Z" fill="#828282"/>
</svg>