<svg width="44" height="44" viewBox="0 0 44 44" fill="none" xmlns="http://www.w3.org/2000/svg">
<path fill-rule="evenodd" clip-rule="evenodd" d="M23.3661 8.04081C21.6783 6.35299 19.3891 5.00011 17.0022 5.00011C14.6152 5.00011 12.326 5.94832 10.6382 7.63614C8.95038 9.32397 8.50391 11.5 8.00216 14.0001C8.00216 14.0001 5.5012 33.5 8.00216 36.0001C9.7561 37.7534 12.7069 37.9081 15.0413 36.0001C17.0431 34.3641 11.6382 27.2062 10.6382 20.2062C10.0668 16.2063 12.9252 8.99997 17.0039 8.99997C19.963 8.99997 20.5022 13.0668 20.0022 16.0668C19.126 21.324 19.1332 28.0001 19.1332 28.0001C19.1332 30.3871 19.904 32.6762 21.5919 34.3641C23.2797 36.0519 26.6152 37.0001 29.0022 37.0001C31.3891 37.0001 33.6783 36.0519 35.3661 34.3641C37.0539 32.6762 37.8899 30.387 37.8899 28.0001C37.8899 25.6132 37.0022 9.66447 37.0022 6.00011C37.0022 2.33546 30.476 4.13592 30.476 7.63604C30.476 12.1359 33.3646 19.256 33.8465 23.1781C34.3284 27.1003 31.5022 31.5 29.0022 31.5C26.0004 31.5 23.0715 28.1579 23.3661 24.6351C23.8668 18.6481 28.3605 13.0352 23.3661 8.04081Z" fill="#828282"/>
</svg>
